<svg xmlns="http://www.w3.org/2000/svg" viewBox="0 0 336 336" width="192" height="192">
  <rect width="336" height="336" rx="56" fill="#0D44DC"/>
  <g transform="translate(68, 0)" fill="#ffffff">
    <path d="M143.54 335.595L164.047 167.797H123.033L143.54 335.595Z"/>
    <path d="M175.846 168.442C175.846 201.664 175.846 253.353 175.846 253.353L144.955 187.01L127.379 187.622L136.309 168.442L127.379 149.262L144.955 149.873L175.846 83.5312C175.846 83.5312 175.846 135.22 175.846 168.442Z"/>
    <path d="M12.8166 66.512L126.749 183.999L166.811 157.034L12.8166 66.512Z"/>
    <path d="M12.8166 270.062L126.749 152.575L166.811 179.54L12.8166 270.062Z"/>
    <path d="M143.54 0L164.047 167.797H123.033L143.54 0Z"/>
  </g>
</svg>
